<svg width="46" height="46" viewBox="0 0 46 46" fill="none" xmlns="http://www.w3.org/2000/svg">
<path d="M45.5 34.05V42.89C45.5003 43.5229 45.2605 44.1324 44.829 44.5955C44.3975 45.0585 43.8064 45.3407 43.175 45.385C42.0825 45.46 41.19 45.5 40.5 45.5C18.4075 45.5 0.5 27.5925 0.5 5.5C0.5 4.81 0.5375 3.9175 0.615 2.825C0.659306 2.19361 0.941453 1.60253 1.40451 1.17102C1.86756 0.739517 2.47706 0.499714 3.11 0.500001H11.95C12.2601 0.499687 12.5592 0.614648 12.7893 0.822551C13.0194 1.03045 13.164 1.31646 13.195 1.625C13.2525 2.2 13.305 2.6575 13.355 3.005C13.8518 6.47231 14.87 9.84458 16.375 13.0075C16.6125 13.5075 16.4575 14.105 16.0075 14.425L10.6125 18.28C13.9111 25.9661 20.0364 32.0914 27.7225 35.39L31.5725 30.005C31.7299 29.785 31.9595 29.6272 32.2212 29.5591C32.483 29.4911 32.7604 29.517 33.005 29.6325C36.1676 31.1347 39.539 32.1503 43.005 32.645C43.3525 32.695 43.81 32.75 44.38 32.805C44.6881 32.8366 44.9735 32.9814 45.1809 33.2114C45.3883 33.4415 45.5029 33.7403 45.5025 34.05H45.5Z" fill="black"/>
</svg>
