<svg width="56" height="56" viewBox="0 0 56 56" fill="none" xmlns="http://www.w3.org/2000/svg">
<path d="M47.5329 47.5453H39.3158V34.6662C39.3158 31.5952 39.2542 27.6423 35.03 27.6423C30.7472 27.6423 30.0936 30.9847 30.0936 34.4411V47.5453H21.8734V21.0625H29.7667V24.67H29.8747C30.9785 22.5918 33.661 20.3934 37.6693 20.3934C45.9943 20.3934 47.536 25.8756 47.536 33.0073V47.5453H47.5329ZM12.5926 17.4396C11.9653 17.4404 11.344 17.3174 10.7644 17.0776C10.1847 16.8378 9.65807 16.486 9.21466 16.0423C8.77124 15.5986 8.41976 15.0718 8.18037 14.492C7.94097 13.9121 7.81837 13.2908 7.81958 12.6635C7.82019 11.7195 8.10072 10.7969 8.62569 10.0123C9.15066 9.22771 9.8965 8.61642 10.7689 8.25573C11.6413 7.89503 12.601 7.80113 13.5268 7.9859C14.4525 8.17066 15.3027 8.6258 15.9698 9.29374C16.6369 9.96169 17.0909 10.8125 17.2745 11.7384C17.458 12.6644 17.3629 13.6241 17.0011 14.496C16.6393 15.3679 16.027 16.1129 15.2418 16.6369C14.4565 17.1609 13.5335 17.4402 12.5895 17.4396H12.5926ZM16.7119 47.5453H8.47017V21.0625H16.715V47.5453H16.7119ZM51.6492 0.25H4.34775C2.07842 0.25 0.25 2.03833 0.25 4.24908V51.7509C0.25 53.9617 2.0815 55.75 4.34467 55.75H51.6368C53.9 55.75 55.75 53.9617 55.75 51.7509V4.24908C55.75 2.03833 53.9 0.25 51.6368 0.25H51.6461H51.6492Z" fill="black"/>
</svg>
