<svg width="51" height="62" viewBox="0 0 51 62" fill="none" xmlns="http://www.w3.org/2000/svg">
<path d="M39.6928 39.1418C42.3181 36.3679 44.0731 32.8856 44.7408 29.1252C45.4084 25.3648 44.9595 21.4912 43.4496 17.9831C41.9397 14.4751 39.4349 11.4864 36.2448 9.3864C33.0547 7.28645 29.3192 6.16731 25.5 6.16731C21.6808 6.16731 17.9453 7.28645 14.7552 9.3864C11.5652 11.4864 9.06035 14.4751 7.55041 17.9831C6.04048 21.4912 5.5916 25.3648 6.25927 29.1252C6.92694 32.8856 8.68188 36.3679 11.3072 39.1418C12.8137 36.7377 14.9066 34.7561 17.3893 33.3829C19.872 32.0097 22.6629 31.2901 25.5 31.2916C28.3371 31.2901 31.1281 32.0097 33.6107 33.3829C36.0934 34.7561 38.1863 36.7377 39.6928 39.1418ZM25.5 61.2406L7.73385 43.4744C4.22008 39.9606 1.82719 35.4838 0.857759 30.61C-0.11167 25.7363 0.385907 20.6845 2.28757 16.0935C4.18923 11.5025 7.40956 7.57856 11.5413 4.8178C15.6731 2.05704 20.5308 0.583496 25.5 0.583496C30.4693 0.583496 35.3269 2.05704 39.4587 4.8178C43.5905 7.57856 46.8108 11.5025 48.7125 16.0935C50.6141 20.6845 51.1117 25.7363 50.1423 30.61C49.1728 35.4838 46.7799 39.9606 43.2662 43.4744L25.5 61.2406ZM25.5 28.4999C23.2788 28.4999 21.1486 27.6176 19.578 26.047C18.0074 24.4763 17.125 22.3461 17.125 20.1249C17.125 17.9038 18.0074 15.7735 19.578 14.2029C21.1486 12.6323 23.2788 11.7499 25.5 11.7499C27.7212 11.7499 29.8514 12.6323 31.422 14.2029C32.9926 15.7735 33.875 17.9038 33.875 20.1249C33.875 22.3461 32.9926 24.4763 31.422 26.047C29.8514 27.6176 27.7212 28.4999 25.5 28.4999Z" fill="black"/>
</svg>
