<svg width="51" height="41" viewBox="0 0 51 41" fill="none" xmlns="http://www.w3.org/2000/svg">
<path d="M2.62467 0.166504H48.3747C49.0488 0.166504 49.6953 0.404532 50.1719 0.828225C50.6486 1.25192 50.9163 1.82657 50.9163 2.42576V38.5739C50.9163 39.1731 50.6486 39.7478 50.1719 40.1715C49.6953 40.5951 49.0488 40.8332 48.3747 40.8332H2.62467C1.95058 40.8332 1.3041 40.5951 0.827445 40.1715C0.35079 39.7478 0.0830078 39.1731 0.0830078 38.5739V2.42576C0.0830078 1.82657 0.35079 1.25192 0.827445 0.828225C1.3041 0.404532 1.95058 0.166504 2.62467 0.166504ZM25.6522 19.7837L9.35501 7.48199L6.06355 10.9251L25.6852 25.7345L44.9536 10.9138L41.6291 7.49554L25.6547 19.7837H25.6522Z" fill="black"/>
</svg>
