<svg width="56" height="56" viewBox="0 0 56 56" fill="none" xmlns="http://www.w3.org/2000/svg">
<path d="M27.9998 56C12.5354 56 -0.000244141 43.4644 -0.000244141 28C-0.000244141 12.5356 12.5354 0 27.9998 0C43.4642 0 55.9998 12.5356 55.9998 28C55.9998 43.4644 43.4642 56 27.9998 56ZM45.7938 39.0656V38.7716C45.7938 36.19 45.7938 35.0112 43.9682 33.9668C43.3814 33.6341 42.7787 33.3305 42.1622 33.0568C41.1346 32.5892 40.4542 32.284 39.5358 30.94C39.4261 30.7804 39.3178 30.6199 39.211 30.4584C38.245 28.9884 37.5478 27.93 34.8934 28.35C29.6714 29.1788 29.285 30.0972 29.0554 31.6484L29.019 31.9032C28.6802 34.1712 28.6186 34.9328 29.565 35.9268C33.107 39.6424 35.2294 42.322 35.8734 43.89C36.187 44.6544 36.9934 46.97 36.439 49.2604C39.8377 47.9067 42.8629 45.7589 45.2618 42.9968C45.5698 41.9496 45.7938 40.6448 45.7938 39.0656ZM27.9998 5.1324C21.5122 5.1324 15.6518 7.8372 11.491 12.1772C11.9866 12.5216 12.4178 13.006 12.7146 13.6724C13.2858 14.952 13.2858 16.2708 13.2858 17.4384C13.2858 18.3568 13.2858 19.2304 13.5798 19.8604C13.983 20.7228 15.7246 21.0924 17.2618 21.4116C17.8134 21.5292 18.379 21.6468 18.8942 21.7896C20.311 22.1816 21.4086 23.4556 22.285 24.4776C22.649 24.9004 23.1894 25.5248 23.461 25.6816C23.601 25.5808 24.0518 25.0908 24.273 24.2872C24.4466 23.6712 24.3962 23.128 24.147 22.8312C22.579 20.9832 22.6658 17.4272 23.1502 16.114C23.9118 14.0448 26.2918 14.1988 28.0334 14.3108C28.683 14.3528 29.2934 14.3948 29.7526 14.336C31.4942 14.1176 32.0318 11.466 32.4098 10.948C33.2274 9.828 35.7306 8.1396 37.2818 7.098C34.3599 5.79878 31.1974 5.12906 27.9998 5.1324Z" fill="black"/>
</svg>
