<svg width="89" height="110" viewBox="0 0 89 110" fill="none" xmlns="http://www.w3.org/2000/svg">
<g filter="url(#filter0_d_439_63)">
<path d="M86.8879 0.0410156V11.1547C86.8879 64.6502 61.7704 88.9501 30.7906 88.9501H21.8992C22.8902 72.213 27.2752 62.0829 38.719 50.0468C44.3475 44.1288 43.8706 40.7114 41.0985 42.6729C22.0067 56.176 12.5263 74.4246 12.1055 103.565L12.0915 105.621H2.74194C2.74194 98.0466 3.28422 91.1729 4.35942 84.8825C3.28422 77.692 2.74194 67.9342 2.74194 55.6092C2.74194 24.9189 23.6709 0.0410156 49.4897 0.0410156C58.8393 0.0410156 68.1888 5.59784 86.8879 0.0410156Z" fill="#FFB803"/>
</g>
<defs>
<filter id="filter0_d_439_63" x="0.741943" y="0.0410156" width="88.146" height="109.58" filterUnits="userSpaceOnUse" color-interpolation-filters="sRGB">
<feFlood flood-opacity="0" result="BackgroundImageFix"/>
<feColorMatrix in="SourceAlpha" type="matrix" values="0 0 0 0 0 0 0 0 0 0 0 0 0 0 0 0 0 0 127 0" result="hardAlpha"/>
<feOffset dy="2"/>
<feGaussianBlur stdDeviation="1"/>
<feComposite in2="hardAlpha" operator="out"/>
<feColorMatrix type="matrix" values="0 0 0 0 0 0 0 0 0 0 0 0 0 0 0 0 0 0 0.4 0"/>
<feBlend mode="normal" in2="BackgroundImageFix" result="effect1_dropShadow_439_63"/>
<feBlend mode="normal" in="SourceGraphic" in2="effect1_dropShadow_439_63" result="shape"/>
</filter>
</defs>
</svg>
