<svg width="127" height="127" viewBox="0 0 127 127" fill="none" xmlns="http://www.w3.org/2000/svg">
<g filter="url(#filter0_d_439_62)">
<path d="M63.3975 122.465C29.5924 122.465 2.1897 95.0622 2.1897 61.2571C2.1897 27.452 29.5924 0.0493164 63.3975 0.0493164C97.2026 0.0493164 124.605 27.452 124.605 61.2571C124.605 95.0622 97.2026 122.465 63.3975 122.465ZM102.295 85.4464V84.8038C102.295 79.1604 102.295 76.5835 98.3043 74.3005C97.0216 73.5733 95.7041 72.9094 94.3564 72.3112C92.1101 71.2891 90.6227 70.6219 88.6151 67.6839C88.3754 67.3351 88.1387 66.9841 87.9051 66.6312C85.7934 63.4177 84.2694 61.1041 78.4669 62.0222C67.0516 63.834 66.2069 65.8416 65.705 69.2325L65.6255 69.7895C64.8848 74.7473 64.7502 76.4122 66.819 78.585C74.5618 86.7073 79.2014 92.5649 80.6091 95.9925C81.2947 97.6635 83.0574 102.725 81.8455 107.732C89.2751 104.773 95.8882 100.078 101.132 94.04C101.805 91.7508 102.295 88.8985 102.295 85.4464V85.4464ZM63.3975 11.2687C49.2157 11.2687 36.4049 17.1814 27.3094 26.6686C28.3928 27.4214 29.3354 28.4803 29.9842 29.9371C31.2328 32.7343 31.2328 35.6172 31.2328 38.1695C31.2328 40.1771 31.2328 42.0868 31.8755 43.464C32.7569 45.3492 36.564 46.1572 39.9243 46.8549C41.1301 47.112 42.3665 47.3691 43.4927 47.6812C46.5898 48.5381 48.9892 51.3231 50.905 53.5572C51.7007 54.4814 52.882 55.8463 53.4757 56.1891C53.7818 55.9688 54.7672 54.8976 55.2507 53.141C55.6302 51.7944 55.5201 50.607 54.9753 49.9582C51.5477 45.9184 51.7374 38.145 52.7963 35.2744C54.4612 30.7511 59.6638 31.0878 63.4709 31.3326C64.891 31.4244 66.2253 31.5162 67.2291 31.3877C71.0362 30.9103 72.2114 25.1139 73.0377 23.9816C74.825 21.5333 80.297 17.8424 83.6879 15.5655C77.3008 12.7254 70.3875 11.2614 63.3975 11.2687V11.2687Z" fill="#FFB803"/>
</g>
<defs>
<filter id="filter0_d_439_62" x="0.189697" y="0.0493164" width="126.416" height="126.416" filterUnits="userSpaceOnUse" color-interpolation-filters="sRGB">
<feFlood flood-opacity="0" result="BackgroundImageFix"/>
<feColorMatrix in="SourceAlpha" type="matrix" values="0 0 0 0 0 0 0 0 0 0 0 0 0 0 0 0 0 0 127 0" result="hardAlpha"/>
<feOffset dy="2"/>
<feGaussianBlur stdDeviation="1"/>
<feComposite in2="hardAlpha" operator="out"/>
<feColorMatrix type="matrix" values="0 0 0 0 0 0 0 0 0 0 0 0 0 0 0 0 0 0 0.4 0"/>
<feBlend mode="normal" in2="BackgroundImageFix" result="effect1_dropShadow_439_62"/>
<feBlend mode="normal" in="SourceGraphic" in2="effect1_dropShadow_439_62" result="shape"/>
</filter>
</defs>
</svg>
