<svg width="82" height="105" viewBox="0 0 82 105" fill="none" xmlns="http://www.w3.org/2000/svg">
<g filter="url(#filter0_d_439_30)">
<path d="M35.8285 76.6488H21.1333C19.7065 70.4982 13.2692 65.4685 10.627 62.154C6.10265 56.4685 3.26716 49.6133 2.4472 42.378C1.62725 35.1426 2.85619 27.8214 5.99246 21.2578C9.12873 14.6942 14.0447 9.15524 20.1742 5.27887C26.3036 1.40251 33.3972 -0.653509 40.6377 -0.652343C47.8781 -0.651177 54.971 1.40713 61.0992 5.28546C67.2275 9.1638 72.1417 14.7044 75.2759 21.269C78.4101 27.8336 79.6367 35.1552 78.8144 42.3903C77.9922 49.6254 75.1545 56.4797 70.6283 62.1636C67.9861 65.4733 61.5584 70.503 60.1317 76.6488H45.4364V52.4907H35.8285V76.6488ZM59.8482 86.3121V91.1437C59.8482 93.7066 58.836 96.1644 57.0341 97.9767C55.2323 99.7889 52.7885 100.807 50.2403 100.807H31.0246C28.4764 100.807 26.0326 99.7889 24.2308 97.9767C22.429 96.1644 21.4167 93.7066 21.4167 91.1437V86.3121H59.8482Z" fill="#FFB803"/>
</g>
<defs>
<filter id="filter0_d_439_30" x="0.199951" y="-0.652344" width="80.863" height="105.459" filterUnits="userSpaceOnUse" color-interpolation-filters="sRGB">
<feFlood flood-opacity="0" result="BackgroundImageFix"/>
<feColorMatrix in="SourceAlpha" type="matrix" values="0 0 0 0 0 0 0 0 0 0 0 0 0 0 0 0 0 0 127 0" result="hardAlpha"/>
<feOffset dy="2"/>
<feGaussianBlur stdDeviation="1"/>
<feComposite in2="hardAlpha" operator="out"/>
<feColorMatrix type="matrix" values="0 0 0 0 0 0 0 0 0 0 0 0 0 0 0 0 0 0 0.4 0"/>
<feBlend mode="normal" in2="BackgroundImageFix" result="effect1_dropShadow_439_30"/>
<feBlend mode="normal" in="SourceGraphic" in2="effect1_dropShadow_439_30" result="shape"/>
</filter>
</defs>
</svg>
